<svg width="32" height="32" viewBox="0 0 32 32" fill="none" xmlns="http://www.w3.org/2000/svg">
<rect width="32" height="32" fill="black"/>
<g clip-path="url(#clip0_1046_179)">
<path fill-rule="evenodd" clip-rule="evenodd" d="M23 21.5C23 21.8978 22.842 22.2794 22.5607 22.5607C22.2794 22.842 21.8978 23 21.5 23H10.5C10.1022 23 9.72064 22.842 9.43934 22.5607C9.15804 22.2794 9 21.8978 9 21.5V10.5C9 10.1022 9.15804 9.72064 9.43934 9.43934C9.72064 9.15804 10.1022 9 10.5 9H21.5C21.8978 9 22.2794 9.15804 22.5607 9.43934C22.842 9.72064 23 10.1022 23 10.5V21.5ZM18.121 16.22C18.3998 15.9413 18.621 15.6103 18.7718 15.246C18.9226 14.8817 19.0002 14.4913 19 14.097V11.907C19.0002 11.822 18.9787 11.7384 18.9376 11.6641C18.8964 11.5897 18.8371 11.527 18.765 11.482C18.6929 11.437 18.6106 11.411 18.5257 11.4067C18.4409 11.4023 18.3563 11.4196 18.28 11.457L16 12.598L13.72 11.458C13.6437 11.4206 13.5591 11.4033 13.4743 11.4077C13.3894 11.412 13.3071 11.438 13.235 11.483C13.1629 11.528 13.1036 11.5907 13.0624 11.6651C13.0213 11.7394 12.9998 11.823 13 11.908V14.098C13 14.7851 13.2359 15.4513 13.6682 15.9854C14.1005 16.5194 14.703 16.8889 15.375 17.032V19.084L13.942 17.651C13.8248 17.5338 13.6658 17.4679 13.5 17.4679C13.3342 17.4679 13.1752 17.5338 13.058 17.651C12.9408 17.7682 12.8749 17.9272 12.8749 18.093C12.8749 18.1751 12.8911 18.2564 12.9225 18.3322C12.9539 18.408 13 18.477 13.058 18.535L15.558 21.035C15.6735 21.1512 15.8302 21.217 15.994 21.218H16.006C16.1698 21.217 16.3265 21.1512 16.442 21.035L18.942 18.535C19.0592 18.4178 19.1251 18.2588 19.1251 18.093C19.1251 17.9272 19.0592 17.7682 18.942 17.651C18.8248 17.5338 18.6658 17.4679 18.5 17.4679C18.3342 17.4679 18.1752 17.5338 18.058 17.651L16.625 19.084V17.032C17.1917 16.9112 17.7113 16.6298 18.121 16.22Z" fill="white"/>
</g>
<defs>
<clipPath id="clip0_1046_179">
<rect width="14" height="14" fill="white" transform="translate(9 9)"/>
</clipPath>
</defs>
</svg>
