<svg width="256" height="256" viewBox="0 0 256 256" fill="none" xmlns="http://www.w3.org/2000/svg">
<rect width="256" height="256" fill="black"/>
<g clip-path="url(#clip0_1046_178)">
<path fill-rule="evenodd" clip-rule="evenodd" d="M219 199.5C219 204.672 216.946 209.632 213.289 213.289C209.632 216.946 204.672 219 199.5 219H56.5C51.3283 219 46.3684 216.946 42.7114 213.289C39.0545 209.632 37 204.672 37 199.5V56.5C37 51.3283 39.0545 46.3684 42.7114 42.7114C46.3684 39.0545 51.3283 37 56.5 37H199.5C204.672 37 209.632 39.0545 213.289 42.7114C216.946 46.3684 219 51.3283 219 56.5V199.5ZM155.573 130.86C159.198 127.236 162.073 122.934 164.034 118.198C165.994 113.462 167.002 108.387 167 103.261V74.791C167.002 73.6864 166.723 72.5994 166.188 71.6327C165.654 70.666 164.882 69.8514 163.945 69.266C163.008 68.6805 161.938 68.3435 160.835 68.2866C159.731 68.2297 158.632 68.455 157.64 68.941L128 83.774L98.36 68.954C97.368 68.468 96.2686 68.2427 95.1654 68.2996C94.0622 68.3565 92.9917 68.6935 92.055 69.279C91.1183 69.8644 90.3462 70.679 89.8117 71.6457C89.2771 72.6124 88.9978 73.6994 89 74.804V103.274C89.0005 112.206 92.067 120.867 97.6867 127.81C103.307 134.752 111.139 139.555 119.875 141.416V168.092L101.246 149.463C99.7221 147.939 97.6552 147.083 95.5 147.083C93.3448 147.083 91.2779 147.939 89.754 149.463C88.2301 150.987 87.3739 153.054 87.3739 155.209C87.3739 156.276 87.5841 157.333 87.9925 158.319C88.4009 159.305 88.9994 160.2 89.754 160.955L122.254 193.455C123.755 194.966 125.793 195.821 127.922 195.834H128.078C130.207 195.821 132.245 194.966 133.746 193.455L166.246 160.955C167.77 159.431 168.626 157.364 168.626 155.209C168.626 153.054 167.77 150.987 166.246 149.463C164.722 147.939 162.655 147.083 160.5 147.083C158.345 147.083 156.278 147.939 154.754 149.463L136.125 168.092V141.416C143.492 139.845 150.247 136.187 155.573 130.86Z" fill="white"/>
</g>
<defs>
<clipPath id="clip0_1046_178">
<rect width="182" height="182" fill="white" transform="translate(37 37)"/>
</clipPath>
</defs>
</svg>
